# Blender 4.0.2
# www.blender.org
o Icosphere
v -0.178320 -0.887060 -0.080295
v 0.713660 -0.359568 0.493298
v -0.276388 -0.447220 0.850649
v -0.922824 -0.338054 0.176891
v -0.095601 -0.385700 -0.846116
v 0.492110 -0.043781 -0.608596
v 0.346364 0.601938 0.825612
v -0.882651 0.537391 0.706206
v -0.660941 0.655602 -0.508975
v 0.483614 0.434444 -0.734037
v 0.914101 0.354762 0.101518
v 0.000000 1.000000 0.000000
v -0.330362 -0.889854 0.462810
v 0.306076 -0.967354 0.337755
v -0.036201 -0.559573 0.728050
v 0.614063 -0.379044 -0.174623
v 0.376314 -1.035419 -0.274641
v -0.670972 -0.683524 -0.190134
v -0.689244 -0.400939 0.425253
v -0.108735 -0.666708 -0.482230
v -1.020678 -0.398066 -0.117637
v 0.181442 -0.797254 -0.831551
v 1.105964 0.246690 0.221834
v 0.531442 -0.001826 -0.551551
v 0.202977 -0.005611 1.272698
v 0.697526 0.237470 0.871589
v -0.902074 0.365538 0.249247
v -0.744143 0.131842 0.641401
v -0.912152 0.365600 -0.483525
v -0.981002 0.179221 -0.146012
v 0.599730 0.376795 -0.993157
v -0.323196 0.098405 -1.347598
v 0.673900 0.489956 0.737968
v -0.258585 1.004643 0.669798
v -0.783158 0.699623 -0.028748
v -0.469779 0.824800 -0.744223
v 0.669534 1.018607 -0.498178
v 0.164985 1.066580 0.565762
v 0.661852 0.945924 0.145098
v -0.310105 1.131258 0.271185
v -0.434484 0.936640 -0.288224
v 0.162456 0.850654 -0.499995
vn -0.1287 -0.9908 -0.0411
vn 0.8383 -0.5342 -0.1094
vn -0.3595 -0.9272 -0.1054
vn -0.2339 -0.8349 -0.4982
vn -0.3821 -0.7809 -0.4942
vn 0.8130 -0.5729 -0.1045
vn 0.0297 -0.7073 0.7063
vn -0.7337 -0.0481 0.6778
vn -0.5919 -0.2783 -0.7564
vn 0.9298 -0.3478 -0.1202
vn 0.8100 -0.2981 0.5050
vn -0.5635 -0.1625 0.8100
vn -0.9814 0.0092 0.1916
vn -0.7146 -0.6366 -0.2902
vn 0.8541 -0.4526 -0.2560
vn 0.3875 0.5606 0.7319
vn -0.5568 0.7682 0.3160
vn -0.6594 0.7146 -0.2333
vn 0.2611 0.6183 -0.7413
vn 0.9198 0.3884 0.0549
vn 0.1320 0.9607 -0.2441
vn -0.3131 0.9441 0.1029
vn -0.1315 0.4068 -0.9040
vn 0.0414 0.9610 -0.2736
vn 0.0538 0.9688 -0.2418
vn -0.7306 0.6741 -0.1088
vn 0.0931 0.9338 -0.3455
vn -0.6219 0.7722 -0.1304
vn -0.6945 0.7166 0.0642
vn 0.2432 0.9526 -0.1830
vn -0.0627 0.9488 0.3095
vn 0.1306 0.5223 0.8427
vn 0.1128 0.9825 -0.1485
vn 0.5749 0.6542 0.4914
vn 0.8948 0.3626 0.2607
vn 0.8806 -0.0949 -0.4642
vn 0.9900 -0.1359 0.0366
vn -0.7843 0.4301 -0.4471
vn 0.2724 0.6467 -0.7124
vn -0.7189 0.3525 -0.5990
vn -0.7536 0.6394 -0.1525
vn -0.8815 0.3938 -0.2604
vn -0.9361 0.3511 0.0214
vn -0.9562 0.2850 -0.0665
vn 0.1395 -0.1096 0.9841
vn -0.5099 0.2570 0.8210
vn 0.1631 0.5595 0.8126
vn 0.3731 0.4610 0.8052
vn 0.7937 0.3409 0.5038
vn 0.4907 0.8713 0.0001
vn -0.1737 0.9419 -0.2874
vn 0.4147 -0.2675 -0.8698
vn -0.8154 -0.5548 -0.1655
vn -0.7297 0.6506 0.2104
vn -0.9840 0.0594 -0.1679
vn -0.9507 0.0801 0.2996
vn -0.9243 -0.3426 0.1681
vn -0.9442 -0.2026 0.2595
vn -0.6950 -0.3307 0.6385
vn 0.3972 0.4813 0.7814
vn 0.6413 -0.6606 0.3903
vn 0.3767 -0.4885 0.7871
vn 0.6424 0.4486 -0.6214
vn 0.8069 -0.3196 -0.4967
vn 0.8725 -0.2363 -0.4277
vn 0.8793 -0.2410 -0.4108
vn -0.5548 -0.8173 -0.1554
vn -0.7438 -0.5158 -0.4251
vn -0.4322 -0.7061 -0.5609
vn -0.4306 -0.3124 -0.8468
vn -0.5519 -0.7621 0.3386
vn -0.5582 -0.7602 0.3325
vn -0.7921 -0.5633 0.2352
vn -0.6668 -0.4435 0.5989
vn 0.8660 -0.2475 -0.4345
vn 0.9229 -0.3565 0.1455
vn -0.2309 -0.9696 0.0813
vn 0.0710 -0.6622 0.7459
vn 0.0666 -0.6602 0.7482
vn 0.3745 -0.4575 0.8065
s 0
f 1//1 14//1 13//1
f 2//2 14//2 16//2
f 1//3 13//3 18//3
f 1//4 18//4 20//4
f 1//5 20//5 17//5
f 2//6 16//6 23//6
f 3//7 15//7 25//7
f 4//8 19//8 27//8
f 5//9 21//9 29//9
f 6//10 22//10 31//10
f 2//11 23//11 26//11
f 3//12 25//12 28//12
f 4//13 27//13 30//13
f 5//14 29//14 32//14
f 6//15 31//15 24//15
f 7//16 33//16 38//16
f 8//17 34//17 40//17
f 9//18 35//18 41//18
f 10//19 36//19 42//19
f 11//20 37//20 39//20
f 39//21 42//21 12//21
f 39//22 37//22 42//22
f 37//23 10//23 42//23
f 42//24 41//24 12//24
f 42//25 36//25 41//25
f 36//26 9//26 41//26
f 41//27 40//27 12//27
f 41//28 35//28 40//28
f 35//29 8//29 40//29
f 40//30 38//30 12//30
f 40//31 34//31 38//31
f 34//32 7//32 38//32
f 38//33 39//33 12//33
f 38//34 33//34 39//34
f 33//35 11//35 39//35
f 24//36 37//36 11//36
f 24//37 31//37 37//37
f 31//38 10//38 37//38
f 32//39 36//39 10//39
f 32//40 29//40 36//40
f 29//41 9//41 36//41
f 30//42 35//42 9//42
f 30//43 27//43 35//43
f 27//44 8//44 35//44
f 28//45 34//45 8//45
f 28//46 25//46 34//46
f 25//47 7//47 34//47
f 26//48 33//48 7//48
f 26//49 23//49 33//49
f 23//50 11//50 33//50
f 31//51 32//51 10//51
f 31//52 22//52 32//52
f 22//53 5//53 32//53
f 29//54 30//54 9//54
f 29//55 21//55 30//55
f 21//56 4//56 30//56
f 27//57 28//57 8//57
f 27//58 19//58 28//58
f 19//59 3//59 28//59
f 25//60 26//60 7//60
f 25//61 15//61 26//61
f 15//62 2//62 26//62
f 23//63 24//63 11//63
f 23//64 16//64 24//64
f 16//65 6//65 24//65
f 17//66 22//66 6//66
f 17//67 20//67 22//67
f 20//68 5//68 22//68
f 20//69 21//69 5//69
f 20//70 18//70 21//70
f 18//71 4//71 21//71
f 18//72 19//72 4//72
f 18//73 13//73 19//73
f 13//74 3//74 19//74
f 16//75 17//75 6//75
f 16//76 14//76 17//76
f 14//77 1//77 17//77
f 13//78 15//78 3//78
f 13//79 14//79 15//79
f 14//80 2//80 15//80
