# Blender 4.0.2
# www.blender.org
o Cube
v 0.600000 0.400000 -0.400000
v 1.400000 -0.200000 0.300000
v 0.600000 0.400000 0.400000
v 1.400000 -0.200000 -0.300000
v -0.325000 -0.350000 -0.850000
v 0.225000 0.350000 -0.850000
v -0.225000 0.350000 -0.850000
v 0.225000 -0.350000 -0.850000
v 0.325000 1.250000 -0.600000
v -0.325000 1.250000 -0.600000
v -0.325000 0.350000 -0.850000
v 0.325000 0.350000 -0.850000
v 0.325000 1.250000 -0.700000
v -0.325000 1.250000 -0.700000
v -0.325000 0.350000 -0.950000
v 0.325000 0.350000 -0.950000
v 0.325000 -1.250000 -0.600000
v -0.325000 -1.250000 -0.600000
v -0.325000 -0.350000 -0.950000
v 0.325000 -1.250000 -0.700000
v -0.325000 -1.250000 -0.700000
v 0.325000 -0.350000 -0.850000
v 0.325000 -0.350000 -0.950000
v -0.225000 -0.350000 -0.850000
v -0.325000 -0.350000 0.850000
v 0.225000 0.350000 0.850000
v -0.225000 0.350000 0.850000
v 0.225000 -0.350000 0.850000
v 0.325000 1.250000 0.600000
v -0.325000 1.250000 0.600000
v -0.325000 0.350000 0.850000
v 0.325000 0.350000 0.850000
v 0.325000 1.250000 0.700000
v -0.325000 1.250000 0.700000
v -0.325000 0.350000 0.950000
v 0.325000 0.350000 0.950000
v 0.325000 -1.250000 0.600000
v -0.325000 -1.250000 0.600000
v -0.325000 -0.350000 0.950000
v 0.325000 -1.250000 0.700000
v -0.325000 -1.250000 0.700000
v 0.325000 -0.350000 0.850000
v 0.325000 -0.350000 0.950000
v -0.225000 -0.350000 0.850000
vn -0.0000 -0.2676 -0.9635
vn -0.0000 0.2676 -0.9635
vn -0.0000 -1.0000 -0.0000
vn -1.0000 -0.0000 -0.0000
vn 1.0000 -0.0000 -0.0000
vn -0.0000 -0.0000 1.0000
vn -0.0000 -0.0000 -1.0000
vn -0.0000 0.2676 0.9635
vn -0.0000 1.0000 -0.0000
vn -0.0000 -0.2676 0.9635
vn -0.6000 -0.8000 -0.0000
s 0
f 31//1 30//1 29//1 32//1
f 11//2 10//2 9//2 12//2
f 15//2 14//2 13//2 16//2
f 10//3 14//3 13//3 9//3
f 9//4 13//4 16//4 12//4
f 11//5 15//5 14//5 10//5
f 20//5 23//5 22//5 17//5
f 18//3 21//3 20//3 17//3
f 5//4 19//4 21//4 18//4
f 7//6 11//6 5//6 24//6
f 15//5 11//5 5//5 19//5
f 6//7 12//7 22//7 8//7
f 12//4 16//4 23//4 22//4
f 16//7 23//7 19//7 15//7
f 20//1 21//1 19//1 23//1
f 17//8 22//8 5//8 18//8
f 35//1 34//1 33//1 36//1
f 30//9 34//9 33//9 29//9
f 29//5 33//5 36//5 32//5
f 31//4 35//4 34//4 30//4
f 40//4 43//4 42//4 37//4
f 38//9 41//9 40//9 37//9
f 25//5 39//5 41//5 38//5
f 27//6 31//6 25//6 44//6
f 35//4 31//4 25//4 39//4
f 26//7 32//7 42//7 28//7
f 32//5 36//5 43//5 42//5
f 36//7 43//7 39//7 35//7
f 40//2 41//2 39//2 43//2
f 37//10 42//10 25//10 38//10
f 2//11 3//11 1//11 4//11
l 26 27
l 6 7
l 5 8
l 24 8
l 25 28
l 28 44
