# Blender 4.0.2
# www.blender.org
o Cube
v 0.500000 -0.300000 2.000000
v 0.500000 0.400000 0.102367
v 0.750000 -0.300000 0.100000
v 0.500000 0.400000 0.100000
v 0.750000 -0.300000 -0.500000
v 0.500000 0.400000 -0.500000
v 0.400000 -0.500000 1.500000
v 0.650000 -0.500000 0.100000
v 0.853590 -0.274173 -0.500000
v 0.853590 0.125827 -0.500000
v 1.200000 0.325827 -3.000000
v 1.200000 0.325827 0.100000
v 1.546410 0.125827 -3.000000
v 1.546410 0.125827 0.100000
v 1.546410 -0.274173 -3.000000
v 1.546410 -0.274173 0.100000
v 1.200000 -0.474173 -3.000000
v 1.200000 -0.474173 0.100000
v 0.853590 -0.274173 -3.000000
v 0.853590 -0.274173 0.100000
v 0.853590 0.125827 -3.000000
v 0.853590 0.125827 0.100000
v 0.853590 0.125827 -1.000000
v 0.853590 -0.274173 -1.000000
v 0.500000 0.400000 -1.000000
v 0.750000 -0.300000 -1.500000
v 0.650000 -0.500000 -1.500000
v -0.500000 -0.300000 2.000000
v -0.500000 0.400000 0.102367
v -0.750000 -0.300000 0.100000
v -0.500000 0.400000 0.100000
v -0.750000 -0.300000 -0.500000
v -0.500000 0.400000 -0.500000
v -0.400000 -0.500000 1.500000
v -0.650000 -0.500000 0.100000
v -0.853590 -0.274173 -0.500000
v -0.853590 0.125827 -0.500000
v -1.200000 0.325827 -3.000000
v -1.200000 0.325827 0.100000
v -1.546410 0.125827 -3.000000
v -1.546410 0.125827 0.100000
v -1.546410 -0.274173 -3.000000
v -1.546410 -0.274173 0.100000
v -1.200000 -0.474173 -3.000000
v -1.200000 -0.474173 0.100000
v -0.853590 -0.274173 -3.000000
v -0.853590 -0.274173 0.100000
v -0.853590 0.125827 -3.000000
v -0.853590 0.125827 0.100000
v -0.853590 0.125827 -1.000000
v -0.853590 -0.274173 -1.000000
v -0.500000 0.400000 -1.000000
v -0.750000 -0.300000 -1.500000
v -0.650000 -0.500000 -1.500000
v 0.750000 -0.300000 -1.000000
v 0.500000 0.400000 -1.500000
v -0.500000 0.400000 -1.500000
v -0.750000 -0.300000 -1.000000
vn 0.9346 0.3338 0.1230
vn 0.8944 -0.4472 -0.0000
vn 0.9417 0.3363 -0.0000
vn 0.8170 -0.5632 0.1238
vn -0.0000 -0.0000 1.0000
vn 0.5000 0.8660 -0.0000
vn 1.0000 -0.0000 -0.0000
vn 0.5000 -0.8660 -0.0000
vn -0.5000 -0.8660 -0.0000
vn -1.0000 -0.0000 -0.0000
vn -0.5000 0.8660 -0.0000
vn -0.0000 -0.0000 -1.0000
vn 0.6128 0.7903 -0.0000
vn 0.2419 -0.9703 -0.0000
vn -0.9346 0.3338 0.1230
vn -0.8944 -0.4472 -0.0000
vn -0.9417 0.3363 -0.0000
vn -0.8170 -0.5632 0.1238
vn -0.6128 0.7903 -0.0000
vn -0.0000 -0.9285 0.3714
vn -0.0000 -1.0000 -0.0000
vn -0.2419 -0.9703 -0.0000
vn -0.0000 1.0000 -0.0000
s 0
f 3//1 4//1 1//1
f 8//2 27//2 26//2 3//2
f 4//3 3//3 5//3 6//3
f 7//4 8//4 3//4 1//4
f 6//5 5//5 9//5 10//5
f 11//6 12//6 14//6 13//6
f 13//7 14//7 16//7 15//7
f 15//8 16//8 18//8 17//8
f 17//9 18//9 20//9 19//9
f 14//5 12//5 22//5 20//5 18//5 16//5
f 24//10 23//10 21//10 19//10
f 21//11 22//11 12//11 11//11
f 11//12 13//12 15//12 17//12 19//12 21//12
f 9//10 20//10 22//10 10//10
f 23//13 25//13 6//13 10//13
f 55//14 24//14 9//14 5//14
f 30//15 28//15 31//15
f 35//16 30//16 53//16 54//16
f 31//17 33//17 32//17 30//17
f 34//18 28//18 30//18 35//18
f 33//5 37//5 36//5 32//5
f 38//11 40//11 41//11 39//11
f 40//10 42//10 43//10 41//10
f 42//9 44//9 45//9 43//9
f 44//8 46//8 47//8 45//8
f 41//5 43//5 45//5 47//5 49//5 39//5
f 51//7 46//7 48//7 50//7
f 48//6 38//6 39//6 49//6
f 38//12 48//12 46//12 44//12 42//12 40//12
f 36//7 37//7 49//7 47//7
f 50//19 37//19 33//19 52//19
f 24//12 55//12 25//12 23//12
f 1//20 28//20 34//20 7//20
f 7//21 34//21 35//21 8//21
f 8//21 35//21 54//21 27//21
f 2//7 1//7 4//7
f 25//3 55//3 26//3 56//3
f 58//22 32//22 36//22 51//22
f 51//12 50//12 52//12 58//12
f 52//17 57//17 53//17 58//17
f 31//23 4//23 56//23 57//23
f 27//12 54//12 53//12 57//12 56//12 26//12
l 4 25
l 5 26
l 29 28
l 31 29
l 52 31
l 53 32
l 2 31
